<?xml version="1.0" encoding="UTF-8"?>
<svg width="24px" height="24px" viewBox="0 0 24 24" version="1.1" xmlns="http://www.w3.org/2000/svg" xmlns:xlink="http://www.w3.org/1999/xlink">
    <!-- Generator: Sketch 50 (54983) - http://www.bohemiancoding.com/sketch -->
    <title>ic_border_all_black_18px</title>
    <desc>Created with Sketch.</desc>
    <defs></defs>
    <g id="Desktop" stroke="none" stroke-width="1" fill="none" fill-rule="evenodd">
        <g id="Product" transform="translate(-743.000000, -4713.000000)">
            <g id="ic_border_all_black_18px" transform="translate(739.000000, 4709.000000)">
                <path d="M4,4 L4,28 L28,28 L28,4 L4,4 Z M14.6666667,25.3333333 L6.66666667,25.3333333 L6.66666667,17.3333333 L14.6666667,17.3333333 L14.6666667,25.3333333 Z M14.6666667,14.6666667 L6.66666667,14.6666667 L6.66666667,6.66666667 L14.6666667,6.66666667 L14.6666667,14.6666667 Z M25.3333333,25.3333333 L17.3333333,25.3333333 L17.3333333,17.3333333 L25.3333333,17.3333333 L25.3333333,25.3333333 Z M25.3333333,14.6666667 L17.3333333,14.6666667 L17.3333333,6.66666667 L25.3333333,6.66666667 L25.3333333,14.6666667 Z" id="Shape" fill="#2294ED" fill-rule="nonzero"></path>
                <polygon id="Shape" points="0 0 32 0 32 32 0 32"></polygon>
            </g>
        </g>
    </g>
</svg>