<?xml version="1.0" encoding="UTF-8"?>
<svg width="32px" height="22px" viewBox="0 0 32 22" version="1.1" xmlns="http://www.w3.org/2000/svg" xmlns:xlink="http://www.w3.org/1999/xlink">
    <!-- Generator: Sketch 50 (54983) - http://www.bohemiancoding.com/sketch -->
    <title>ic_phonelink_black_18px</title>
    <desc>Created with Sketch.</desc>
    <defs></defs>
    <g id="Desktop" stroke="none" stroke-width="1" fill="none" fill-rule="evenodd">
        <g id="Product" transform="translate(-447.000000, -4714.000000)">
            <g id="ic_phonelink_black_18px" transform="translate(447.000000, 4709.000000)">
                <polygon id="Shape" points="0 0 32 0 32 32 0 32"></polygon>
                <path d="M5.33333333,8 L29.3333333,8 L29.3333333,5.33333333 L5.33333333,5.33333333 C3.86666667,5.33333333 2.66666667,6.53333333 2.66666667,8 L2.66666667,22.6666667 L0,22.6666667 L0,26.6666667 L18.6666667,26.6666667 L18.6666667,22.6666667 L5.33333333,22.6666667 L5.33333333,8 Z M30.6666667,10.6666667 L22.6666667,10.6666667 C21.9333333,10.6666667 21.3333333,11.2666667 21.3333333,12 L21.3333333,25.3333333 C21.3333333,26.0666667 21.9333333,26.6666667 22.6666667,26.6666667 L30.6666667,26.6666667 C31.4,26.6666667 32,26.0666667 32,25.3333333 L32,12 C32,11.2666667 31.4,10.6666667 30.6666667,10.6666667 Z M29.3333333,22.6666667 L24,22.6666667 L24,13.3333333 L29.3333333,13.3333333 L29.3333333,22.6666667 Z" id="Shape" fill="#2294ED" fill-rule="nonzero"></path>
            </g>
        </g>
    </g>
</svg>