<?xml version="1.0" encoding="UTF-8"?>
<svg width="23px" height="28px" viewBox="0 0 23 28" version="1.1" xmlns="http://www.w3.org/2000/svg" xmlns:xlink="http://www.w3.org/1999/xlink">
    <!-- Generator: Sketch 50 (54983) - http://www.bohemiancoding.com/sketch -->
    <title>Path 957 Copy 2</title>
    <desc>Created with Sketch.</desc>
    <defs></defs>
    <g id="Desktop" stroke="none" stroke-width="1" fill="none" fill-rule="evenodd">
        <g id="Product" transform="translate(-159.000000, -4974.000000)" fill="#2294ED" fill-rule="nonzero">
            <path d="M181.166667,4990.80677 C181.166667,4987.80104 179.964474,4985.60935 177.862411,4983.82187 C177.251945,4983.30277 175.607028,4982.14871 175.475898,4982.03042 C173.563675,4980.30534 172.832126,4978.70401 173.542126,4975.72757 C173.816092,4974.57906 172.64121,4973.62713 171.58833,4974.14454 C167.040569,4976.37939 165.196197,4981.08355 165.551638,4985.26634 C165.018729,4984.49226 164.652973,4983.48257 164.533853,4982.29641 C164.401284,4980.97632 162.690265,4980.5683 161.985596,4981.68872 C159.75863,4985.22961 159,4987.35988 159,4990.80677 C159,4997.0655 163.995436,5002 170.09926,5002 C176.1976,5002 181.166667,4997.06886 181.166667,4990.80677 Z M161.770833,4990.80677 C161.770833,4987.96102 162.356236,4986.95069 162.763165,4985.97933 C163.821474,4988.04779 165.553102,4989.39903 167.30489,4989.39903 C168.187807,4989.39903 168.845458,4988.57719 168.659091,4987.70673 C167.456913,4982.09178 169.589804,4979.25457 170.518024,4978.34194 C170.670471,4980.69363 171.792821,4982.45726 173.628668,4984.11344 C173.919061,4984.37542 175.608903,4985.56099 176.0764,4985.95852 C177.598718,4987.25302 178.395833,4988.70622 178.395833,4990.80677 C178.395833,4995.51515 174.677288,4999.20532 170.09926,4999.20532 C165.512947,4999.20532 161.770833,4995.50885 161.770833,4990.80677 Z" id="Path-957-Copy-2"></path>
        </g>
    </g>
</svg>